<?xml version="1.0" encoding="iso-8859-1"?>
<!-- Generator: Adobe Illustrator 19.0.0, SVG Export Plug-In . SVG Version: 6.00 Build 0)  -->
<svg xmlns="http://www.w3.org/2000/svg" xmlns:xlink="http://www.w3.org/1999/xlink" version="1.1" id="Capa_1" x="0px" y="0px" viewBox="0 0 490 490" style="enable-background:new 0 0 490 490;" xml:space="preserve" width="512px" height="512px">
<g>
	<g>
		<path d="M21.2,246.4c-11.4,0-20.8,9.4-20.8,20.8v201.9c0,11.4,9.4,20.8,20.8,20.8c10.4,0,19.8-9.4,20.8-20.8V267.3    C42,255.8,32.7,246.4,21.2,246.4z" fill="#e84e04"/>
		<path d="M170.1,211.1c-11.4,0-20.8,9.4-20.8,20.8v237.3c0,11.4,9.4,20.8,20.8,20.8c11.4,0,20.8-9.4,20.8-20.8V231.9    C190.9,220.4,181.5,211.1,170.1,211.1z" fill="#e84e04"/>
		<path d="M319.9,173.6c-11.4,0-20.8,9.4-20.8,20.8v274.8c0,11.4,9.4,20.8,20.8,20.8s19.8-9.4,20.8-19.8V194.4    C340.8,183,331.4,173.6,319.9,173.6z" fill="#e84e04"/>
		<path d="M468.8,103.8c-11.4,0-20.8,9.4-20.8,20.8v344.5c0,11.4,9.4,20.8,20.8,20.8s20.8-9.4,20.8-19.8V124.7    C489.6,113.2,480.2,103.8,468.8,103.8z" fill="#e84e04"/>
		<path d="M357.4,24.7L282.5,0.8c-11.4-3.1-22.9,3.1-26,13.5c-3.1,11.4,3.1,22.9,13.5,26l31.1,10c-123.7,68.9-280,86.8-282,86.8    C8.7,139.2,0.4,148.5,1.4,160c1,10.4,9.7,18.3,21.9,17.7c7-1,161.5-18.4,291.8-88.3l-6.6,20.7c-4.2,10.4,2.1,22.9,12.5,26    c12.4,3.9,21.9-4.2,26-12.5l23.9-72.9C373,45.6,373.9,30.8,357.4,24.7z" fill="#e84e04"/>
	</g>
</g>
<g>
</g>
<g>
</g>
<g>
</g>
<g>
</g>
<g>
</g>
<g>
</g>
<g>
</g>
<g>
</g>
<g>
</g>
<g>
</g>
<g>
</g>
<g>
</g>
<g>
</g>
<g>
</g>
<g>
</g>
</svg>
