<?xml version="1.0" encoding="iso-8859-1"?>
<!-- Generator: Adobe Illustrator 19.0.0, SVG Export Plug-In . SVG Version: 6.00 Build 0)  -->
<svg version="1.1" id="Layer_1" xmlns="http://www.w3.org/2000/svg" xmlns:xlink="http://www.w3.org/1999/xlink" x="0px" y="0px"
	 viewBox="0 0 490.667 490.667" style="enable-background:new 0 0 490.667 490.667;" xml:space="preserve">

<g>
	<g>
		<path d="M245.333,234.667C215.936,234.667,192,215.531,192,192c0-23.531,23.936-42.667,53.333-42.667s53.333,19.136,53.333,42.667
			c0,5.888,4.779,10.667,10.667,10.667S320,197.888,320,192c0-35.285-33.493-64-74.667-64s-74.667,28.715-74.667,64
			s33.493,64,74.667,64c29.397,0,53.333,19.136,53.333,42.667c0,23.531-23.936,42.667-53.333,42.667S192,322.197,192,298.667
			c0-5.888-4.779-10.667-10.667-10.667s-10.667,4.779-10.667,10.667c0,35.285,33.493,64,74.667,64s74.667-28.715,74.667-64
			S286.507,234.667,245.333,234.667z" fill="#E84E04"/>
	</g>
</g>
<g>
	<g>
		<path d="M245.333,106.667c-5.888,0-10.667,4.779-10.667,10.667v256c0,5.888,4.779,10.667,10.667,10.667S256,379.221,256,373.333
			v-256C256,111.445,251.221,106.667,245.333,106.667z" fill="#E84E04"/>
	</g>
</g>
<g>
</g>
<g>
</g>
<g>
</g>
<g>
</g>
<g>
</g>
<g>
</g>
<g>
</g>
<g>
</g>
<g>
</g>
<g>
</g>
<g>
</g>
<g>
</g>
<g>
</g>
<g>
</g>
<g>
</g>
</svg>
