<?xml version="1.0" encoding="iso-8859-1"?>
<!-- Generator: Adobe Illustrator 19.0.0, SVG Export Plug-In . SVG Version: 6.00 Build 0)  -->
<svg xmlns="http://www.w3.org/2000/svg" xmlns:xlink="http://www.w3.org/1999/xlink" version="1.1" id="Layer_1" x="0px" y="0px" viewBox="0 0 512 512" style="enable-background:new 0 0 512 512;" xml:space="preserve" width="512px" height="512px">
<g>
	<g>
		<path d="M256,245.333c-76.459,0-138.667-40.683-138.667-90.667S179.541,64,256,64s138.667,40.683,138.667,90.667    c0,5.888,4.779,10.667,10.667,10.667c5.888,0,10.667-4.779,10.667-10.667c0-61.76-71.765-112-160-112s-160,50.24-160,112    s71.765,112,160,112c76.459,0,138.667,40.683,138.667,90.667S332.459,448,256,448s-138.667-40.683-138.667-90.667    c0-5.888-4.779-10.667-10.667-10.667S96,351.445,96,357.333c0,61.76,71.765,112,160,112s160-50.24,160-112    S344.235,245.333,256,245.333z" fill="#e84e04"/>
	</g>
</g>
<g>
	<g>
		<path d="M256,0c-5.888,0-10.667,4.779-10.667,10.667v490.667c0,5.888,4.779,10.667,10.667,10.667    c5.909,0,10.667-4.779,10.667-10.667V10.667C266.667,4.779,261.888,0,256,0z" fill="#e84e04"/>
	</g>
</g>
<g>
</g>
<g>
</g>
<g>
</g>
<g>
</g>
<g>
</g>
<g>
</g>
<g>
</g>
<g>
</g>
<g>
</g>
<g>
</g>
<g>
</g>
<g>
</g>
<g>
</g>
<g>
</g>
<g>
</g>
</svg>
