<?xml version="1.0" encoding="iso-8859-1"?>
<!-- Generator: Adobe Illustrator 19.0.0, SVG Export Plug-In . SVG Version: 6.00 Build 0)  -->
<svg xmlns="http://www.w3.org/2000/svg" xmlns:xlink="http://www.w3.org/1999/xlink" version="1.1" id="Layer_1" x="0px" y="0px" viewBox="0 0 512 512" style="enable-background:new 0 0 512 512;" xml:space="preserve" width="512px" height="512px">
<g>
	<g>
		<g>
			<path d="M462.379,353.523c-10.891-6.802-24.776-7.501-36.317-1.865l-81.818,39.711v-4.315c0-20.743-15.889-36.485-36.631-36.485     h-79.243c-16.168,0-32.699-2.991-48.145-7.77l-51.622-16.39v-20.815c0-6.654-4.391-11.646-11.044-11.646H45.277     c-6.652,0-13.051,4.992-13.051,11.646v191.548c0,6.654,6.398,12.448,13.051,12.448h72.282c6.652,0,11.044-5.796,11.044-12.448     v-19.286l8.618,6.721C159.053,502.137,187.008,512,215.027,512h69.628c24.915,0,48.96-7.617,69.539-21.662l109.441-74.794     c10.104-6.897,16.137-18.366,16.137-30.598C479.772,372.102,473.271,360.326,462.379,353.523z M104.506,485.496H56.318V318.042     h48.188V485.496z M450.052,395.546l-109.442,74.892c-16.559,11.303-35.907,17.468-55.955,17.468h-69.628     c-22.546,0-45.139-7.975-62.707-22.105l-23.719-18.866V351.63l44.497,14.184c17.755,5.496,36.685,8.849,55.27,8.849h79.243     c7.456,0,12.537,4.933,12.537,12.39v14.564c-14.456,3.949-48.286,10.945-82.53,5.434c-6.566-1.055-12.504,3.412-13.561,9.98     c-1.057,6.569,3.535,12.751,10.103,13.808c10.475,1.685,20.882,2.361,30.749,2.361c39.026,0,70.508-10.586,72.147-11.147     c0.447-0.153,0.89-0.336,1.306-0.535c0.029-0.014,0.067-0.023,0.096-0.036l98.662-48.175c4.085-1.994,8.639-1.756,12.492,0.651     c3.853,2.407,6.064,6.393,6.064,10.936C455.677,389.161,453.575,393.141,450.052,395.546z" fill="#fcc844"/>
			<path d="M192.876,187.758c14.613,15.79,22.709,36.306,22.826,57.816c-0.008,0.13-0.17,0.259-0.173,0.388     c-0.005,0.134-0.188,0.265-0.188,0.4v38.551c0,4.35,2.482,8.15,5.938,10.268l22.279,22.622c2.261,2.274,5.42,3.854,8.627,3.854     h34.739c3.207,0,6.281-1.581,8.543-3.854l22.806-23.332c2.76-2.207,4.289-5.749,4.289-9.557v-38.551     c0-0.135,0.228-0.266,0.223-0.4c-0.005-0.13,0.124-0.258,0.116-0.388c0.118-21.509,8.274-42.025,22.838-57.763     c0.24-0.254,3.608-3.702,3.718-3.82c19.025-20.415,29.519-46.602,29.519-74.515C378.973,49.038,329.826,0,269.393,0     c-0.022,0-0.042,0-0.064,0c-60.432,0-109.597,49.038-109.597,109.478c0,27.913,10.477,54.314,29.497,74.722     C189.343,184.321,192.668,187.538,192.876,187.758z M298.464,279.823l-16.554,17.739h-24.718l-17.759-18.124v-20.427h59.031     V279.823z M269.361,23.239c47.165,0.146,85.534,38.633,85.534,85.811c0,21.794-8.18,42.576-22.983,58.461     c-0.172,0.18-3.557,3.977-3.75,4.184c-16.177,17.483-26.118,39.129-28.615,63.223h-16.743v-24.722     c0-1.805-0.105-3.586-0.885-5.214l-39.418-82.425c0.353,0.113,0.784,0.228,1.146,0.343c6.103,1.966,13.058,4.195,26.17,4.195     s20.047-2.229,26.151-4.195c5.261-1.695,9.427-3.033,18.752-3.033c6.652,0,12.052-5.393,12.052-12.047     c0-6.654-5.392-12.047-12.045-12.047c-13.112,0-20.027,2.229-26.13,4.195c-5.262,1.696-9.417,3.035-18.743,3.035     s-13.482-1.338-18.743-3.033c-6.103-1.966-13.019-4.195-26.131-4.195c-0.687,0-5.999,0.434-7.902,1.347     c-5.998,2.879-8.827,10.076-5.946,16.074l47.58,99.742v21.98h-19.534c-2.495-24.094-12.435-45.739-28.608-63.216     c-0.187-0.202-3.589-3.865-3.704-3.988c-14.854-15.938-23.035-36.794-23.035-58.59C183.827,61.947,222.194,23.385,269.361,23.239     z" fill="#fcc844"/>
		</g>
	</g>
</g>
<g>
</g>
<g>
</g>
<g>
</g>
<g>
</g>
<g>
</g>
<g>
</g>
<g>
</g>
<g>
</g>
<g>
</g>
<g>
</g>
<g>
</g>
<g>
</g>
<g>
</g>
<g>
</g>
<g>
</g>
</svg>
