<?xml version="1.0" encoding="iso-8859-1"?>
<!-- Generator: Adobe Illustrator 19.0.0, SVG Export Plug-In . SVG Version: 6.00 Build 0)  -->
<svg xmlns="http://www.w3.org/2000/svg" xmlns:xlink="http://www.w3.org/1999/xlink" version="1.1" id="Layer_1" x="0px" y="0px" viewBox="0 0 500.748 500.748" style="enable-background:new 0 0 500.748 500.748;" xml:space="preserve" width="512px" height="512px">
<g>
	<g>
		<path d="M500.748,21.662c0-4.18-1.624-8.104-4.572-11.04l-5.172-5.176c-2.944-2.948-6.864-4.572-11.044-4.572    s-8.108,1.624-11.048,4.568l-6.428,6.428c-7.848-3.828-17.324-3.016-24.436,2.436c-0.752-0.24-1.536-0.396-2.336-0.396    c-2.068,0-4.06,0.824-5.524,2.288l-16.392,16.396c-2.044,2.04-2.684,4.92-2,7.52L49.52,402.39l-19.1,19.104    c-9.728,9.728-12.516,23.772-8.432,36.012L5.32,474.178c-0.04,0.032-0.06,0.076-0.092,0.108C2.344,477.222,0,481.686,0,485.81    c0,4.168,0.68,6.248,3.624,9.188c2.944,2.952,6.644,4.876,10.812,4.876c4.164,0,5.876-0.628,9.796-3.656v0.016v0.012    l18.228-16.644c3.64,1.224,8.22,1.876,12.02,1.876c9,0,18.4-3.428,25.248-10.276L461.244,89.89    c0.716,0.208,1.552,0.348,2.296,0.348c2,0,4.044-0.76,5.572-2.288l2.696-2.672l2.764,2.752l-137.82,137.82    c-3.052,3.052-3.048,7.992,0.004,11.044c1.524,1.524,3.528,2.288,5.524,2.288c2,0,4-0.76,5.524-2.288l143.34-143.34    c3.052-3.052,3.052-7.996,0-11.044l-8.264-8.272l2.676-2.672c1.464-1.464,2.288-3.452,2.288-5.52c0-0.88-0.184-1.728-0.464-2.544    c5.4-7.112,6.184-16.54,2.372-24.356l6.428-6.428C499.124,29.766,500.748,25.842,500.748,21.662z" fill="#e84e04"/>
	</g>
</g>
<g>
</g>
<g>
</g>
<g>
</g>
<g>
</g>
<g>
</g>
<g>
</g>
<g>
</g>
<g>
</g>
<g>
</g>
<g>
</g>
<g>
</g>
<g>
</g>
<g>
</g>
<g>
</g>
<g>
</g>
</svg>
