<?xml version="1.0" encoding="iso-8859-1"?>
<!-- Generator: Adobe Illustrator 18.0.0, SVG Export Plug-In . SVG Version: 6.00 Build 0)  -->
<!DOCTYPE svg PUBLIC "-//W3C//DTD SVG 1.1//EN" "http://www.w3.org/Graphics/SVG/1.1/DTD/svg11.dtd">
<svg xmlns="http://www.w3.org/2000/svg" xmlns:xlink="http://www.w3.org/1999/xlink" version="1.1" id="Capa_1" x="0px" y="0px" viewBox="0 0 498.554 498.554" style="enable-background:new 0 0 498.554 498.554;" xml:space="preserve" width="512px" height="512px">
<g>
	<path d="M495.058,411.037l-43.42-43.419l25.827-25.826c2.893-2.894,4.103-7.066,3.205-11.058c-0.896-3.992-3.775-7.246-7.628-8.623   l-148.508-53.088c-4.345-1.553-9.196-0.463-12.458,2.8c-3.264,3.263-4.354,8.113-2.801,12.458l53.088,148.509   c1.377,3.853,4.632,6.73,8.623,7.628c3.992,0.896,8.165-0.314,11.058-3.206l25.827-25.827l43.42,43.419   c4.661,4.662,12.219,4.662,16.881,0.001l26.886-26.887c2.238-2.238,3.496-5.274,3.496-8.441   C498.554,416.313,497.296,413.277,495.058,411.037z" fill="#e84e04"/>
	<path d="M71.326,330.686l101.5-101.499l45.818,45.819c7.513,7.511,17.494,11.645,28.104,11.645   c10.611,0,20.592-4.134,28.105-11.645l45.819-45.819l39.186,39.189l71.803,25.668l-87.921-87.928L460.837,89.02   c0,0.064,0.032,0.111,0.032,0.175v215.291l16.381,5.855c7.14,2.552,12.572,8.159,14.935,15.248   c0.848-3.605,1.312-7.358,1.312-11.218V89.195c0-26.988-21.954-48.941-48.942-48.941H48.941C21.953,40.253,0,62.206,0,89.195   v225.177c0,26.988,21.953,48.942,48.941,48.942h275.311l-11.663-32.628H71.326z M430.838,72.881L251.783,251.937   c-2.691,2.691-7.377,2.691-10.069,0L62.666,72.881H430.838z M34.412,321.461c-1.061-2.166-1.784-4.516-1.784-7.09V89.195   c0-0.063,0.032-0.11,0.032-0.175l117.098,117.097L34.412,321.461z" fill="#e84e04"/>
</g>
<g>
</g>
<g>
</g>
<g>
</g>
<g>
</g>
<g>
</g>
<g>
</g>
<g>
</g>
<g>
</g>
<g>
</g>
<g>
</g>
<g>
</g>
<g>
</g>
<g>
</g>
<g>
</g>
<g>
</g>
</svg>
