<?xml version="1.0" encoding="iso-8859-1"?>
<!-- Generator: Adobe Illustrator 16.0.0, SVG Export Plug-In . SVG Version: 6.00 Build 0)  -->
<!DOCTYPE svg PUBLIC "-//W3C//DTD SVG 1.1//EN" "http://www.w3.org/Graphics/SVG/1.1/DTD/svg11.dtd">
<svg xmlns="http://www.w3.org/2000/svg" xmlns:xlink="http://www.w3.org/1999/xlink" version="1.1" id="Capa_1" x="0px" y="0px" width="512px" height="512px" viewBox="0 0 372.009 372.009" style="enable-background:new 0 0 372.009 372.009;" xml:space="preserve">
<g>
	<path d="M72.85,121.096v135.789c0,24.992,20.266,45.265,45.261,45.265h135.783c24.998,0,45.265-20.272,45.265-45.265V121.096   c0-24.995-20.267-45.262-45.265-45.262H118.111C93.116,75.834,72.85,96.101,72.85,121.096z M143.181,146.259   c3.393-1.97,7.752-0.805,9.722,2.594l36.167,31.9l64.71-64.71c2.78-2.78,7.284-2.78,10.059,0c2.78,2.78,2.78,7.281,0,10.058   l-67.98,67.986l80.428,76.129c1.231,1.164,1.285,3.11,0.127,4.348c-0.613,0.636-1.424,0.96-2.234,0.96   c-0.769,0-1.525-0.276-2.113-0.847l-80.701-76.381c-0.094,0.061-0.16,0.139-0.259,0.198c-0.198,0.108-0.405,0.156-0.609,0.253   c-0.198,0.09-0.388,0.168-0.592,0.239c-0.774,0.282-1.561,0.469-2.354,0.469c-0.817,0-1.612-0.192-2.381-0.469   c-0.189-0.071-0.366-0.144-0.546-0.222c-0.763-0.343-1.48-0.781-2.09-1.387c-0.006-0.013-0.012-0.013-0.012-0.013   c-0.018-0.024-0.024-0.048-0.045-0.072c-0.405-0.42-0.78-0.876-1.087-1.405l-40.806-39.913   C138.618,152.579,139.779,148.225,143.181,146.259z" fill="#fcc844"/>
	<rect x="127.593" width="116.826" height="66.611" fill="#fcc844"/>
	<rect x="127.593" y="311.937" width="116.826" height="60.072" fill="#fcc844"/>
</g>
<g>
</g>
<g>
</g>
<g>
</g>
<g>
</g>
<g>
</g>
<g>
</g>
<g>
</g>
<g>
</g>
<g>
</g>
<g>
</g>
<g>
</g>
<g>
</g>
<g>
</g>
<g>
</g>
<g>
</g>
</svg>
